<svg xmlns="http://www.w3.org/2000/svg" width="155.618" height="51.495" viewBox="0 0 155.618 51.495"><defs><style>.a{fill:#da291c;}.b{fill:#333;}</style></defs><g transform="translate(489.678 -245.966)"><path class="a" d="M-456.537,271.713l2.834-2.834a5.443,5.443,0,0,0,.088-7.594l-.01-.007-.081-.086a5.441,5.441,0,0,0-7.681,0l-2.834,2.834-5.667-5.667,2.919-2.919a5.537,5.537,0,0,0,1.2-6.051,5.54,5.54,0,0,0-5.133-3.426,5.534,5.534,0,0,0-5.128,3.426,5.534,5.534,0,0,0,1.2,6.051l2.92,2.919-5.668,5.667-2.835-2.835a5.441,5.441,0,0,0-7.683,0l-.03.031a5.443,5.443,0,0,0,.029,7.653l2.834,2.835-2.834,2.834a5.443,5.443,0,0,0-.029,7.654l.026.028a5.442,5.442,0,0,0,7.687,0l2.834-2.834,5.668,5.667-2.919,2.919a5.534,5.534,0,0,0-1.2,6.05,5.538,5.538,0,0,0,5.133,3.427,5.538,5.538,0,0,0,5.129-3.427,5.538,5.538,0,0,0-1.2-6.05l-2.919-2.919,5.667-5.667,2.835,2.835a5.441,5.441,0,0,0,7.678,0l.005-.005.261-.281a5.446,5.446,0,0,0-.26-7.4Zm-3.842-9.51a4.022,4.022,0,0,1,5.636-.031l.022.023a3.985,3.985,0,0,1,1.182,2.842,3.977,3.977,0,0,1-1.173,2.833l-2.834,2.834-5.667-5.668Zm1.825,9.51-5.144,5.144V266.568Zm-15.261-17.279a4.111,4.111,0,0,1-.894-4.5,4.114,4.114,0,0,1,3.815-2.546,4.113,4.113,0,0,1,3.811,2.546,4.113,4.113,0,0,1-.894,4.5l-2.919,2.919Zm2.919,4.936,5.756,5.757V271h-11.514v-5.878Zm-16.187,8.5a3.98,3.98,0,0,1-1.174-2.831,3.982,3.982,0,0,1,1.174-2.835l.031-.032a4.021,4.021,0,0,1,5.636.031l2.834,2.834-.6.6-4.473,4.472-.6.6Zm8.988-1.3v10.289l-5.145-5.145Zm-3.32,14.655a4,4,0,0,1-2.834,1.167,4,4,0,0,1-2.8-1.137l-.028-.029a3.98,3.98,0,0,1-1.177-2.835,3.979,3.979,0,0,1,1.174-2.835l2.834-2.834,5.667,5.668Zm13.438,7.769a4.113,4.113,0,0,1,.894,4.495,4.117,4.117,0,0,1-3.816,2.547,4.112,4.112,0,0,1-3.81-2.547,4.111,4.111,0,0,1,.866-4.467l.029-.029,2.919-2.919Zm-2.919-4.936-5.757-5.757v-5.978h11.514V278.3Zm16.186-2.835-.025.026a4.009,4.009,0,0,1-2.811,1.143,3.993,3.993,0,0,1-2.831-1.166l-2.834-2.834,5.668-5.668,2.835,2.835a3.978,3.978,0,0,1,1.172,2.832,3.978,3.978,0,0,1-1.172,2.833" transform="translate(0)"/><path class="b" d="M-376.665,287.114V281.72h-7.31v5.394h-1.26V275.049h1.26v5.518h7.31v-5.518h1.259v12.065Z" transform="translate(-54.616 -15.209)"/><path class="b" d="M-350.782,286.484a5.491,5.491,0,0,1-.071.941h-6.831a3,3,0,0,0,3.176,2.8,11.535,11.535,0,0,0,3.016-.461l.2.993a10.463,10.463,0,0,1-3.247.568,4.13,4.13,0,0,1-4.435-4.382,4.093,4.093,0,0,1,4.258-4.347,3.7,3.7,0,0,1,3.938,3.885m-6.937-.018h5.819a2.66,2.66,0,0,0-2.786-2.874,2.9,2.9,0,0,0-3.034,2.874" transform="translate(-68.346 -19.156)"/><path class="b" d="M-329.426,283.042v8.02h-1.206v-.727a5.192,5.192,0,0,1-3.07.993c-2.448,0-4.081-1.757-4.081-4.4.018-2.59,1.6-4.329,4.17-4.329a19.464,19.464,0,0,1,4.187.443m-7.15,3.921a3.007,3.007,0,0,0,3.034,3.318,4.988,4.988,0,0,0,2.91-.994v-5.411a17.525,17.525,0,0,0-2.839-.23c-2.022,0-3.1,1.366-3.1,3.318" transform="translate(-79.43 -19.156)"/><rect class="b" width="1.207" height="12.597" transform="translate(-405.664 259.308)"/><path class="b" d="M-300.07,287.616a6.837,6.837,0,0,1-1.81.23c-1.9,0-2.785-.976-2.785-3.122v-4.24h-1.881v-1.1h1.881v-3.442h1.206v3.442h2.928v1.1h-2.928v4.134c0,1.472.5,2.129,1.774,2.129a9.139,9.139,0,0,0,1.473-.142Z" transform="translate(-95.765 -15.675)"/><path class="b" d="M-280.537,281.421v5.11h-1.206v-4.826a2.242,2.242,0,0,0-2.342-2.519,11.571,11.571,0,0,0-3.069.373v6.973h-1.206v-12.6h1.206v4.524a12.921,12.921,0,0,1,3.282-.39,3.082,3.082,0,0,1,3.336,3.353" transform="translate(-105.274 -14.625)"/><path class="b" d="M-246.844,276.265a14.43,14.43,0,0,0-3.726-.568c-3.477,0-5.465,2.076-5.465,5.074a4.91,4.91,0,0,0,5.288,5.145,16.7,16.7,0,0,0,4.151-.656l.249,1.1a15.527,15.527,0,0,1-4.453.728c-3.974,0-6.547-2.519-6.547-6.3s2.573-6.3,6.636-6.3a14.363,14.363,0,0,1,4.116.6Z" transform="translate(-121.492 -14.917)"/><rect class="b" width="1.207" height="12.597" transform="translate(-365.072 259.308)"/><path class="b" d="M-219.639,275.973a.868.868,0,0,1,.887-.887.868.868,0,0,1,.887.887.863.863,0,0,1-.887.869.864.864,0,0,1-.887-.869m1.508,11.16h-1.224v-8.2h1.224Z" transform="translate(-141.211 -15.228)"/><path class="b" d="M-202.016,285.952v5.11h-1.224v-4.826a2.242,2.242,0,0,0-2.342-2.519,17.348,17.348,0,0,0-3.051.249v7.1h-1.224v-8.02a23.61,23.61,0,0,1,4.489-.444,3.1,3.1,0,0,1,3.353,3.353" transform="translate(-146.326 -19.156)"/><path class="b" d="M-187.7,275.973a.868.868,0,0,1,.887-.887.868.868,0,0,1,.887.887.864.864,0,0,1-.887.869.864.864,0,0,1-.887-.869m1.508,11.16h-1.224v-8.2h1.224Z" transform="translate(-157.915 -15.228)"/><path class="b" d="M-172.143,283.944a11.108,11.108,0,0,0-2.555-.373,3.2,3.2,0,0,0-3.442,3.335,3.153,3.153,0,0,0,3.3,3.318,12.646,12.646,0,0,0,2.839-.461l.213,1.011a11.245,11.245,0,0,1-3.087.514,4.214,4.214,0,0,1-4.489-4.4c0-2.662,1.863-4.365,4.6-4.365a9.535,9.535,0,0,1,2.8.443Z" transform="translate(-162.272 -19.118)"/><path class="b" d="M-382.7,311.516a8.53,8.53,0,0,0-2.242-.371c-.955,0-1.589.439-1.589,1.219,0,.672.507.906,1.686,1.15,1.482.312,2.525.644,2.525,1.94,0,1.268-1.024,1.96-2.466,1.96a7.769,7.769,0,0,1-2.758-.556l.185-.643a7.238,7.238,0,0,0,2.6.555c1.023,0,1.735-.448,1.735-1.258,0-1.014-1.141-1.179-2.213-1.4-1.472-.3-2.028-.731-2.028-1.716,0-1.16.946-1.872,2.339-1.872a7.657,7.657,0,0,1,2.4.4Z" transform="translate(-53.411 -33.758)"/><path class="b" d="M-369.323,312.876v4.406h-.663v-.4a2.893,2.893,0,0,1-1.686.546,2.2,2.2,0,0,1-2.242-2.417,2.186,2.186,0,0,1,2.281-2.379,10.7,10.7,0,0,1,2.31.244m-3.928,2.154a1.644,1.644,0,0,0,1.657,1.823,2.744,2.744,0,0,0,1.608-.546v-2.974a9.7,9.7,0,0,0-1.56-.126,1.63,1.63,0,0,0-1.706,1.822m3.412-4.318a.868.868,0,0,1-1.345.81l-.536-.351a.39.39,0,0,0-.653.322h-.527a.87.87,0,0,1,1.345-.809l.536.351c.312.2.644.059.644-.322Z" transform="translate(-60.536 -33.773)"/><path class="b" d="M-356.62,317.261a2.328,2.328,0,0,1-2.466,2.427,2.334,2.334,0,0,1-2.466-2.427,2.323,2.323,0,0,1,2.466-2.408,2.318,2.318,0,0,1,2.466,2.408m-.682,0a1.7,1.7,0,0,0-1.784-1.793,1.7,1.7,0,0,0-1.784,1.793,1.72,1.72,0,0,0,1.784,1.823,1.714,1.714,0,0,0,1.784-1.823" transform="translate(-67.001 -36.023)"/><path class="b" d="M-337.931,312.836c0,1.335-1.052,2.222-2.6,2.222h-1.55v2.252h-.692v-6.628c.741-.049,1.481-.078,2.242-.078,1.55,0,2.6.819,2.6,2.233m-2.534,1.6a1.648,1.648,0,0,0,1.852-1.589c0-1.043-.76-1.6-1.852-1.6-.526,0-1.023.01-1.618.039v3.148Z" transform="translate(-76.82 -33.8)"/><path class="b" d="M-326.784,315.159v4.406h-.663v-.4a2.849,2.849,0,0,1-1.686.546,2.2,2.2,0,0,1-2.242-2.418,2.194,2.194,0,0,1,2.291-2.378,10.677,10.677,0,0,1,2.3.244m-3.928,2.154a1.652,1.652,0,0,0,1.666,1.823,2.738,2.738,0,0,0,1.6-.546v-2.973a9.653,9.653,0,0,0-1.56-.127,1.635,1.635,0,0,0-1.706,1.823" transform="translate(-82.781 -36.055)"/><path class="b" d="M-314.021,319.627a12.15,12.15,0,0,1-2.466.244,1.649,1.649,0,0,1-1.833-1.842v-2.807h.663V317.9c0,.906.458,1.394,1.287,1.394a10.8,10.8,0,0,0,1.686-.137v-3.938h.663Z" transform="translate(-89.608 -36.215)"/><rect class="b" width="0.663" height="6.92" transform="translate(-401.855 276.589)"/><path class="b" d="M-296.327,317.261a2.329,2.329,0,0,1-2.466,2.427,2.333,2.333,0,0,1-2.466-2.427,2.323,2.323,0,0,1,2.466-2.408,2.318,2.318,0,0,1,2.466,2.408m-.683,0a1.7,1.7,0,0,0-1.784-1.793,1.7,1.7,0,0,0-1.784,1.793,1.72,1.72,0,0,0,1.784,1.823,1.714,1.714,0,0,0,1.784-1.823" transform="translate(-98.53 -36.023)"/></g></svg>