<svg xmlns="http://www.w3.org/2000/svg" width="19.303" height="19.299" viewBox="0 0 19.303 19.299"><defs><style>.a{fill:#fff;}</style></defs><path class="a" d="M9.649,6.939A4.948,4.948,0,1,0,14.6,11.887,4.94,4.94,0,0,0,9.649,6.939Zm0,8.165a3.217,3.217,0,1,1,3.217-3.217A3.223,3.223,0,0,1,9.649,15.1Zm6.3-8.367A1.154,1.154,0,1,1,14.8,5.583,1.151,1.151,0,0,1,15.953,6.737ZM19.23,7.908a5.711,5.711,0,0,0-1.559-4.044,5.749,5.749,0,0,0-4.044-1.559c-1.593-.09-6.369-.09-7.963,0A5.741,5.741,0,0,0,1.621,3.86,5.73,5.73,0,0,0,.063,7.9c-.09,1.593-.09,6.369,0,7.963A5.711,5.711,0,0,0,1.621,19.91a5.756,5.756,0,0,0,4.044,1.559c1.593.09,6.369.09,7.963,0a5.711,5.711,0,0,0,4.044-1.559,5.749,5.749,0,0,0,1.559-4.044c.09-1.593.09-6.365,0-7.958Zm-2.058,9.668a3.257,3.257,0,0,1-1.835,1.835c-1.27.5-4.285.388-5.689.388s-4.423.112-5.689-.388a3.257,3.257,0,0,1-1.835-1.835c-.5-1.27-.388-4.285-.388-5.689S1.626,7.465,2.125,6.2A3.257,3.257,0,0,1,3.96,4.364c1.27-.5,4.285-.388,5.689-.388s4.423-.112,5.689.388A3.257,3.257,0,0,1,17.172,6.2c.5,1.27.388,4.285.388,5.689S17.676,16.31,17.172,17.576Z" transform="translate(0.005 -2.238)"/></svg>